<?xml version="1.0" encoding="utf-8"?>
<!-- Generator: Adobe Illustrator 22.0.1, SVG Export Plug-In . SVG Version: 6.00 Build 0)  -->
<svg version="1.1" id="Layer_1" xmlns="http://www.w3.org/2000/svg" xmlns:xlink="http://www.w3.org/1999/xlink" x="0px" y="0px"
	 viewBox="0 0 105.7 100.5" style="enable-background:new 0 0 105.7 100.5;" xml:space="preserve">
<style type="text/css">
	.st0{fill:#DD0332;}
	.st1{fill:#FFFFFF;}
</style>
<g id="wide_black_on_white">
	<g id="logo_5_">
		<g id="ICON">
			<circle id="molecule" class="st0" cx="49" cy="50" r="33.5"/>
			<path id="atom_path" class="st1" d="M50.2,100.5c26,0,47.3-19.7,50-44.9c2.6-0.4,4.6-2.6,4.6-5.3c0-2.7-2-5-4.6-5.3
				C97.5,19.7,76.2,0,50.2,0C22.5,0,0,22.5,0,50.3C0,78,22.5,100.5,50.2,100.5z M50.2,2c24.9,0,45.3,18.8,48,43
				c-2.4,0.5-4.2,2.7-4.2,5.3c0,2.6,1.8,4.7,4.2,5.3c-2.6,24.2-23.1,43-48,43C23.6,98.5,2,76.9,2,50.3C2,23.6,23.6,2,50.2,2z"/>
			<path id="helmet_shadow" d="M85.2,67.8H49.7c-3.5,0-6.3-1.3-8.1-3.9c-1.9-2.6-2.8-6.2-2.8-11.7s0.9-9.1,2.8-11.7
				c1.9-2.6,4.6-3.9,8.1-3.9h35.5c0.3,0,0.7,0,1,0c-6-13.6-19.8-23.2-35.7-23.2c-7.2,0-10.8,5.7-11.3,10.3
				c-0.8,7.5-3.5,11.8-8.2,12.9c-1.3,0.4-5.1,0.9-11.3,0.9c-6.4,0-8.2,10.6-8.2,14.6c0,4.1,1.8,14.6,8.2,14.6c6.2,0,10,0.5,11.3,0.9
				c4.7,1.1,7.5,5.3,8.2,12.9C39.6,85.4,43.3,91,50.5,91c16,0,29.7-9.5,35.7-23.2C85.9,67.8,85.6,67.8,85.2,67.8z"/>
			<path id="white_helmet" class="st1" d="M85.2,65.9H49.7c-3.5,0-6.3-1.3-8.1-3.9c-1.9-2.6-2.8-6.2-2.8-11.7
				c0-5.5,0.9-9.1,2.8-11.7c1.9-2.6,4.6-3.9,8.1-3.9h35.5c0.3,0,0.7,0,1,0c-6-13.6-19.8-23.2-35.7-23.2c-7.2,0-10.8,5.7-11.3,10.3
				c-0.8,7.5-3.5,11.8-8.2,12.9c-1.3,0.4-5.1,0.9-11.3,0.9c-6.4,0-8.2,10.6-8.2,14.6c0,4.1,1.8,14.6,8.2,14.6c6.2,0,10,0.5,11.3,0.9
				c4.7,1.1,7.5,5.3,8.2,12.9c0.5,4.7,4.1,10.3,11.3,10.3c16,0,29.7-9.5,35.7-23.2C85.9,65.9,85.6,65.9,85.2,65.9z"/>
		</g>
	</g>
</g>
<g id="tall_white_on_colored">
</g>
<g id="wide_white_on_colored">
	<g id="Layer_8">
	</g>
</g>
<g id="wide_black_inverted">
</g>
<g id="wide_white_on_black">
</g>
<g id="tall_black_on_white">
</g>
<g id="tall_black_inverted">
</g>
<g id="tall_white_on_black">
</g>
<g id="UI_kit">
</g>
</svg>
