<?xml version="1.0" encoding="utf-8"?>
<!-- Generator: Adobe Illustrator 22.0.1, SVG Export Plug-In . SVG Version: 6.00 Build 0)  -->
<svg version="1.1" id="Layer_1" xmlns="http://www.w3.org/2000/svg" xmlns:xlink="http://www.w3.org/1999/xlink" x="0px" y="0px"
	 viewBox="0 0 871 382" style="enable-background:new 0 0 871 382;" xml:space="preserve">
<style type="text/css">
	.st0{fill:#D2696B;}
	.st1{fill:#CA5E61;}
	.st2{fill:#FFFFFF;}
</style>
<g id="_x23_d2696bff">
	<path class="st0" d="M599.9,130c-15.4-46.8-50-86.7-93.9-109C480.9,7.9,452.7,1,424.5,0h-9c-33.1,0.6-66.1,9.9-94.5,27.1
		C292.7,44,269,68.3,252.8,97c-16.8,29.7-25.4,64-24.5,98.1c0.7,32.3,9.8,64.5,26.3,92.3c17.5,29.6,43.1,54.3,73.3,70.8
		c29.1,15.9,62.3,23.8,95.4,23.1c10.3-0.2,20.6-1.3,30.7-3.2c33.8-6.2,65.7-21.8,91.4-44.6c24.2-21.3,42.9-48.9,53.6-79.3
		c1.9-5.3,3.5-10.7,4.9-16.2C612.9,202.5,611.6,164.5,599.9,130z"/>
	<path class="st0" d="M478,119.4c4.6,0.1,9.3-0.3,13.8,0.8c7.9,2,14.5,8.3,16.7,16.1c1.5,5.7,1,12.1-1.8,17.3
		c-3.6,6.5-10.3,11.4-17.8,12.1c-3.6,0.3-7.2,0.1-10.8,0.2C478,150.4,478,134.9,478,119.4z"/>
	<path class="st0" d="M0.5,161c9.1,0,18.3,0,27.5,0c0,4.3,0,8.5,0,12.8c-4.5,0-9.1,0.1-13.6-0.1c-0.2,3.7-0.1,7.4-0.1,11.1
		c4,0,8,0,12,0c0,4.2,0,8.3,0,12.5c-4,0-8,0-12,0c0,7.9,0,15.8,0,23.7c-4.6,0-9.1,0-13.7,0C0.5,201,0.5,181,0.5,161z"/>
	<path class="st0" d="M65.1,194c0.8-1.1,2.2-1.7,3.2-2.7c7.5-7.2,6.3-21.5-2.8-27c-8.7-5.4-19.4-2.7-29.1-3.4v60h13.7
		c0.1-9.2-0.2-18.4,0.2-27.6c3.6,9.2,7.4,18.3,10.8,27.6c4.8,0.1,9.6,0,14.4,0C72.3,212,68.5,203.1,65.1,194z M58.5,183.6
		c-1.8,2.6-5.2,2.9-8.2,3.3c-0.1-4.9-0.1-9.7,0-14.6c2.8,0.5,6.3,0.7,7.9,3.5C59.5,178.2,59.8,181.2,58.5,183.6z"/>
	<path class="st0" d="M109.6,161c-5.2-0.1-10.3,0-15.5,0c-5.2,20-10.6,40-15.8,60c4.6,0,9.3,0,13.9,0c0.8-3.3,1.6-6.6,2.3-9.9
		c4.9-0.2,9.9,0,14.8-0.1c0.7,3.3,1.4,6.6,2.1,10c4.8,0.1,9.5,0,14.3,0C120.2,201,114.8,181,109.6,161z M96.9,200.3
		c1.9-8.5,3.6-17.1,4.6-25.8c1.6,8.6,2.9,17.3,4.9,25.8C103.3,200.3,100.1,200.3,96.9,200.3z"/>
	<path class="st0" d="M132.5,161c4.6,0,9.2,0,13.7,0c0,15.4,0,30.8,0,46.3c3.6,0,7.1,0,10.7,0c0,4.6,0,9.2,0,13.7
		c-8.1,0-16.3,0-24.5,0C132.5,201,132.5,181,132.5,161z"/>
	<path class="st0" d="M166.5,161c4.6,0,9.2,0,13.7,0c0,15.4,0,30.8,0,46.3c3.6,0,7.1,0,10.7,0c0,4.6,0,9.2,0,13.8
		c-8.1,0-16.3,0-24.5,0C166.5,201,166.5,181,166.5,161z"/>
	<path class="st0" d="M671.6,161.1c-5.2-0.1-10.4,0-15.5-0.1c-5.2,20-10.6,40-15.8,60c4.6,0,9.3,0,13.9,0c0.8-3.3,1.6-6.6,2.3-9.9
		c4.9-0.2,9.9-0.1,14.8-0.1c0.7,3.3,1.4,6.7,2.1,10c4.7,0.1,9.5,0,14.2,0C682.2,201,676.8,181.1,671.6,161.1z M658.9,200.3
		c1.9-8.5,3.6-17.1,4.6-25.8c1.6,8.6,2.9,17.3,4.9,25.8C665.3,200.3,662.1,200.3,658.9,200.3z"/>
	<path class="st0" d="M725.4,165.7c-3.9-3.5-9.3-4.7-14.4-4.7c-5.5,0-11,0-16.5,0v60h13.7c0-7.6,0-15.1,0-22.7
		c6.9,0.3,14.6-1.1,19.2-6.7C733.2,184.1,732.7,171.9,725.4,165.7z M716.4,183.5c-1.7,2.7-5.2,3-8.1,3.3c-0.1-4.9-0.1-9.7,0-14.6
		c2.6,0.5,6,0.4,7.7,2.9C717.7,177.6,717.6,181,716.4,183.5z"/>
	<path class="st0" d="M768.8,163.2c-8.5-3.9-18.2-1.6-27.3-2.2c0,20,0,40,0,60h13.7c0-7.6,0-15.1,0-22.7c6.2,0.2,13.1-0.8,17.8-5.3
		C781.5,184.9,779.7,168.5,768.8,163.2z M763.4,183.5c-1.7,2.7-5.2,3-8.1,3.4c-0.1-4.9-0.2-9.7,0-14.6c2.6,0.6,6,0.4,7.7,2.9
		C764.7,177.6,764.6,180.9,763.4,183.5z"/>
	<path class="st0" d="M788.5,161c9.3,0,18.5,0,27.7,0c0,4.3,0,8.5,0,12.7c-4.7,0-9.3,0-13.9,0c-0.1,3.7-0.1,7.4-0.1,11
		c4.1,0,8.1,0,12.2,0c0,4.2,0,8.4,0,12.5c-4.1,0-8.1,0-12.2,0c0,3.7,0,7.3,0,11c4.7,0,9.3,0,14,0c0,4.2,0,8.5,0,12.7
		c-9.2,0-18.5,0-27.7,0C788.5,201,788.5,181,788.5,161z"/>
	<path class="st0" d="M826.5,161c4.7,0,9.5,0,14.2,0c5.7,11.5,11.1,23.1,16.8,34.6c-1.1-11.5-0.3-23.1-0.5-34.6
		c4.7,0,9.3-0.1,14,0.1v59.6c-4.9,0.5-9.8,0.2-14.7,0.1c-5.3-11.3-10.9-22.6-16.4-33.9c0.5,11.3,0.2,22.7,0.3,34
		c-4.6,0-9.2,0-13.7,0C826.5,201,826.5,181,826.5,161z"/>
</g>
<g id="_x23_ffffffff">
	<path class="st1" d="M572,244.3c-1.1,4.3-4.8,11.3-6.3,15.5c-8.4,23.9-27,40.4-46,57.2c-20.1,17.9-45.1,29.2-71.7,34
		c-7.4,4-16.2,2.1-24.3,2.3l-76.2-94.1L328,235.3l56.6,17.2L373,235.3l-10.7-15.9l-0.4-0.5l79.6-70.8l49.1-16.5l0.9-0.3l1.2,1.7
		l13.5,20L572,244.3z"/>
	<path class="st2" d="M506,153.1c-0.8-3.2-2.1-6.4-3.8-9.3c-2.5-4.2-5.8-7.9-9.7-10.8c-0.6-0.5-1.3-0.9-2-1.4
		c-3.8-2.5-7.9-4.3-12.4-5.2c-3.9-0.9-7.9-0.8-11.9-0.8c-35.7,0-71.2,0-106.9,0c-3.5-0.3-6.8,2.7-6.7,6.1c0,23.6,0,47.2,0,70.8
		c0,6.8,3.9,13.2,9.5,17c3.4,2.3,7.3,3.6,11.4,3.6c23,0.1,46.1,0,69.1,0c6.8,0.1,13.1-3.5,17.1-8.9c3.5-4.3,4.4-10.1,4.1-15.5
		c4.9,0,10.1,0.2,14.9-0.9c10.4-2.3,19.2-9.7,24.3-18.8C507.2,171.2,508.2,161.7,506,153.1z M486.5,170.8c-2.8,5.1-8.1,8.9-14,9.5
		c-2.8,0.2-5.7,0.1-8.5,0.2c0-12.2,0-24.3,0-36.5c3.6,0.1,7.3-0.2,10.8,0.6c6.2,1.6,11.4,6.5,13.1,12.6
		C489.1,161.8,488.7,166.8,486.5,170.8z"/>
	<path class="st2" d="M328,235.3c57.6,0,115.3,0.1,172.9,0.1c0.5,12.7-10.9,24.2-23.6,24.3c-40.5,0.1-81.1,0-121.7,0.1
		c-4.7,0.2-9.7-0.3-13.9-2.6C333.5,253.3,327.8,244.5,328,235.3z"/>
</g>
<g id="wide_black_on_white">
	<g id="logo_5_">
		<g id="ICON">
			<path id="atom_path" class="st2" d="M418.2,357.6c86.4,0,157.6-65.5,166.4-149.6c8.7-1.3,15.4-8.7,15.4-17.8
				c0-9.1-6.7-16.5-15.4-17.8c-8.9-84.1-80-149.6-166.4-149.6c-92.4,0-167.4,74.9-167.4,167.4C250.8,282.7,325.7,357.6,418.2,357.6z
				 M418.2,29.5c82.8,0,151,62.7,159.8,143.2c-8.1,1.8-14.1,9-14.1,17.6c0,8.6,6,15.7,14.1,17.6C569.2,288.3,501.1,351,418.2,351
				c-88.8,0-160.8-72-160.8-160.8C257.4,101.5,329.4,29.5,418.2,29.5z"/>
		</g>
	</g>
</g>
<g id="UI_kit">
</g>
</svg>
