<?xml version="1.0" encoding="utf-8"?>
<!-- Generator: Adobe Illustrator 22.0.1, SVG Export Plug-In . SVG Version: 6.00 Build 0)  -->
<svg version="1.1" id="Layer_1" xmlns="http://www.w3.org/2000/svg" xmlns:xlink="http://www.w3.org/1999/xlink" x="0px" y="0px"
	 viewBox="0 0 871 382" style="enable-background:new 0 0 871 382;" xml:space="preserve">
<style type="text/css">
	.st0{fill:#D2696B;}
	.st1{fill:#CA5E61;}
	.st2{fill:#FFFFFF;}
</style>
<g id="_x23_d2696bff">
	<path class="st0" d="M599.9,130c-15.4-46.8-50-86.7-93.9-109C480.9,7.9,452.7,1,424.5,0h-9c-33.1,0.6-66.1,9.9-94.5,27.1
		c-28.3,16.9-52,41.2-68.2,69.9c-16.8,29.7-25.4,64-24.5,98.1c0.7,32.3,9.8,64.5,26.3,92.3c17.5,29.6,43.1,54.3,73.3,70.8
		c29.1,15.9,62.3,23.8,95.4,23.1c10.3-0.2,20.6-1.3,30.7-3.2c33.8-6.2,65.7-21.8,91.4-44.6c24.2-21.3,42.9-48.9,53.6-79.3
		c1.9-5.3,3.5-10.7,4.9-16.2C612.9,202.5,611.6,164.5,599.9,130z M495,266.8c-51.7,0.1-103.3,0-155,0.1c-3.5,0.1-7-0.1-10.4-0.8
		c-2.5-0.5-5-1.3-7.3-2.5c-10.4-5.1-17.6-16.2-17.4-27.9c19.1,0,38.2,0,57.3,0c54.3,0,108.6,0.1,162.9,0
		C525.7,252.1,511.2,266.7,495,266.8z M527.9,164c-6.4,11.8-17.7,21.1-30.9,24c-6.2,1.5-12.7,1.2-19,1.2c0.3,6.9-0.9,14.1-5.2,19.7
		c-5,6.8-13.2,11.4-21.8,11.3c-29.3,0-58.7,0.1-88,0c-5.2,0-10.2-1.7-14.5-4.6c-7.1-4.8-12.1-12.9-12.1-21.6c0-30,0-60,0-90.1
		c-0.2-4.5,4.1-8.3,8.5-7.8c45.3,0,90.7,0,136.1,0c5,0,10.1-0.1,15.1,1c5.7,1.1,11,3.4,15.8,6.6c0.9,0.6,1.7,1.2,2.6,1.8
		c4.9,3.8,9.2,8.5,12.4,13.7c2.2,3.7,3.8,7.6,4.8,11.8C534.4,142,533.1,154,527.9,164z"/>
	<path class="st0" d="M478,119.4c4.6,0.1,9.3-0.3,13.8,0.8c7.9,2,14.5,8.3,16.7,16.1c1.5,5.7,1,12.1-1.8,17.3
		c-3.6,6.5-10.3,11.4-17.8,12.1c-3.6,0.3-7.2,0.1-10.8,0.2C478,150.4,478,134.9,478,119.4z"/>
	<path class="st0" d="M0.5,161c9.1,0,18.3,0,27.5,0c0,4.3,0,8.5,0,12.8c-4.5,0-9.1,0.1-13.6-0.1c-0.2,3.7-0.1,7.4-0.1,11.1
		c4,0,8,0,12,0c0,4.2,0,8.3,0,12.5c-4,0-8,0-12,0c0,7.9,0,15.8,0,23.7c-4.6,0-9.1,0-13.7,0C0.5,201,0.5,181,0.5,161z"/>
	<path class="st0" d="M65.1,194c0.8-1.1,2.2-1.7,3.2-2.7c7.5-7.2,6.3-21.5-2.8-27c-8.7-5.4-19.4-2.7-29.1-3.4v60h13.7
		c0.1-9.2-0.2-18.4,0.2-27.6c3.6,9.2,7.4,18.3,10.8,27.6c4.8,0.1,9.6,0,14.4,0C72.3,212,68.5,203.1,65.1,194z M58.5,183.6
		c-1.8,2.6-5.2,2.9-8.2,3.3c-0.1-4.9-0.1-9.7,0-14.6c2.8,0.5,6.3,0.7,7.9,3.5C59.5,178.2,59.8,181.2,58.5,183.6z"/>
	<path class="st0" d="M109.6,161c-5.2-0.1-10.3,0-15.5,0c-5.2,20-10.6,40-15.8,60c4.6,0,9.3,0,13.9,0c0.8-3.3,1.6-6.6,2.3-9.9
		c4.9-0.2,9.9,0,14.8-0.1c0.7,3.3,1.4,6.6,2.1,10c4.8,0.1,9.5,0,14.3,0C120.2,201,114.8,181,109.6,161z M96.9,200.3
		c1.9-8.5,3.6-17.1,4.6-25.8c1.6,8.6,2.9,17.3,4.9,25.8C103.3,200.3,100.1,200.3,96.9,200.3z"/>
	<path class="st0" d="M132.5,161c4.6,0,9.2,0,13.7,0c0,15.4,0,30.8,0,46.3c3.6,0,7.1,0,10.7,0c0,4.6,0,9.2,0,13.7
		c-8.1,0-16.3,0-24.5,0C132.5,201,132.5,181,132.5,161z"/>
	<path class="st0" d="M166.5,161c4.6,0,9.2,0,13.7,0c0,15.4,0,30.8,0,46.3c3.6,0,7.1,0,10.7,0c0,4.6,0,9.2,0,13.8
		c-8.1,0-16.3,0-24.5,0C166.5,201,166.5,181,166.5,161z"/>
	<path class="st0" d="M671.6,161.1c-5.2-0.1-10.4,0-15.5-0.1c-5.2,20-10.6,40-15.8,60c4.6,0,9.3,0,13.9,0c0.8-3.3,1.6-6.6,2.3-9.9
		c4.9-0.2,9.9-0.1,14.8-0.1c0.7,3.3,1.4,6.7,2.1,10c4.7,0.1,9.5,0,14.2,0C682.2,201,676.8,181.1,671.6,161.1z M658.9,200.3
		c1.9-8.5,3.6-17.1,4.6-25.8c1.6,8.6,2.9,17.3,4.9,25.8C665.3,200.3,662.1,200.3,658.9,200.3z"/>
	<path class="st0" d="M725.4,165.7c-3.9-3.5-9.3-4.7-14.4-4.7c-5.5,0-11,0-16.5,0v60h13.7c0-7.6,0-15.1,0-22.7
		c6.9,0.3,14.6-1.1,19.2-6.7C733.2,184.1,732.7,171.9,725.4,165.7z M716.4,183.5c-1.7,2.7-5.2,3-8.1,3.3c-0.1-4.9-0.1-9.7,0-14.6
		c2.6,0.5,6,0.4,7.7,2.9C717.7,177.6,717.6,181,716.4,183.5z"/>
	<path class="st0" d="M768.8,163.2c-8.5-3.9-18.2-1.6-27.3-2.2c0,20,0,40,0,60h13.7c0-7.6,0-15.1,0-22.7c6.2,0.2,13.1-0.8,17.8-5.3
		C781.5,184.9,779.7,168.5,768.8,163.2z M763.4,183.5c-1.7,2.7-5.2,3-8.1,3.4c-0.1-4.9-0.2-9.7,0-14.6c2.6,0.6,6,0.4,7.7,2.9
		C764.7,177.6,764.6,180.9,763.4,183.5z"/>
	<path class="st0" d="M788.5,161c9.3,0,18.5,0,27.7,0c0,4.3,0,8.5,0,12.7c-4.7,0-9.3,0-13.9,0c-0.1,3.7-0.1,7.4-0.1,11
		c4.1,0,8.1,0,12.2,0c0,4.2,0,8.4,0,12.5c-4.1,0-8.1,0-12.2,0c0,3.7,0,7.3,0,11c4.7,0,9.3,0,14,0c0,4.2,0,8.5,0,12.7
		c-9.2,0-18.5,0-27.7,0C788.5,201,788.5,181,788.5,161z"/>
	<path class="st0" d="M826.5,161c4.7,0,9.5,0,14.2,0c5.7,11.5,11.1,23.1,16.8,34.6c-1.1-11.5-0.3-23.1-0.5-34.6
		c4.7,0,9.3-0.1,14,0.1v59.6c-4.9,0.5-9.8,0.2-14.7,0.1c-5.3-11.3-10.9-22.6-16.4-33.9c0.5,11.3,0.2,22.7,0.3,34
		c-4.6,0-9.2,0-13.7,0C826.5,201,826.5,181,826.5,161z"/>
</g>
<g id="_x23_ffffffff">
	<path class="st1" d="M603.9,237.8c-1.4,5.5-3,10.8-4.9,16.2c-10.7,30.4-29.4,58-53.6,79.3c-25.6,22.8-57.6,38.4-91.4,44.6
		c-10.1,1.9-20.4,2.9-30.7,3.2l-93.6-115l-24.8-30.4l72.1,21.9l-14.8-21.9l-13.6-20.2l-0.5-0.7l101.3-90.2l62.5-21l1.1-0.4l1.5,2.2
		l17.2,25.5L603.9,237.8z"/>
	<path class="st2" d="M531.6,131c-1-4.1-2.7-8.1-4.8-11.8c-3.2-5.3-7.4-10-12.4-13.7c-0.8-0.6-1.7-1.2-2.6-1.8
		c-4.8-3.2-10.1-5.5-15.8-6.6c-5-1.1-10-1-15.1-1c-45.4,0-90.7,0-136.1,0c-4.4-0.4-8.7,3.4-8.5,7.8c0,30,0,60.1,0,90.1
		c0,8.7,5,16.8,12.1,21.6c4.3,2.9,9.3,4.6,14.5,4.6c29.3,0.1,58.7,0,88,0c8.6,0.1,16.7-4.5,21.8-11.3c4.4-5.5,5.6-12.8,5.2-19.7
		c6.3,0,12.8,0.3,19-1.2c13.2-2.9,24.5-12.3,30.9-24C533.1,154,534.4,142,531.6,131z M506.7,153.6c-3.6,6.5-10.3,11.3-17.8,12.1
		c-3.6,0.3-7.2,0.1-10.8,0.2c0-15.5,0-31,0-46.5c4.6,0.1,9.3-0.3,13.8,0.8c7.9,2,14.5,8.3,16.7,16.1
		C510,142.1,509.5,148.4,506.7,153.6z"/>
	<path class="st2" d="M304.9,235.7c73.4,0,146.8,0.1,220.2,0.1c0.6,16.2-13.9,30.8-30.1,31c-51.6,0.1-103.3,0-155,0.1
		c-6,0.2-12.3-0.4-17.7-3.3C311.9,258.6,304.7,247.4,304.9,235.7z"/>
</g>
</svg>
