<?xml version="1.0" standalone="no"?>
<!DOCTYPE svg PUBLIC "-//W3C//DTD SVG 20010904//EN"
 "http://www.w3.org/TR/2001/REC-SVG-20010904/DTD/svg10.dtd">
<svg version="1.0" xmlns="http://www.w3.org/2000/svg"
 width="383.000000pt" height="383.000000pt" viewBox="0 0 383.000000 383.000000"
 preserveAspectRatio="xMidYMid meet">
<metadata>
Created by potrace 1.11, written by Peter Selinger 2001-2013
</metadata>
<g transform="translate(0.000000,383.000000) scale(0.100000,-0.100000)"
fill="#000000" stroke="none">
<path d="M1728 3820 c-750 -79 -1394 -597 -1621 -1305 -129 -401 -127 -805 4
-1200 161 -484 516 -888 975 -1111 345 -167 747 -228 1124 -168 831 131 1477
785 1595 1615 19 133 19 404 0 536 -88 619 -471 1154 -1028 1434 -183 93 -362
150 -567 184 -118 19 -366 27 -482 15z m502 -248 c228 -48 470 -152 650 -280
122 -86 306 -271 393 -392 81 -115 186 -321 227 -448 31 -98 70 -272 70 -316
0 -20 9 -29 43 -44 152 -69 153 -266 1 -334 -40 -17 -42 -19 -48 -77 -18 -160
-94 -388 -184 -554 -114 -210 -311 -433 -502 -570 -113 -80 -319 -184 -447
-226 -184 -60 -295 -76 -533 -75 -237 0 -323 13 -512 74 -352 115 -683 370
-885 682 -114 176 -206 412 -244 624 -30 166 -30 412 0 578 39 217 134 457
253 636 251 377 644 639 1077 720 158 29 152 29 356 25 140 -3 215 -9 285 -23z"/>
<path d="M1683 3519 c-199 -30 -425 -111 -589 -209 -401 -239 -674 -629 -766
-1092 -18 -93 -22 -145 -22 -298 1 -161 4 -202 27 -312 142 -677 675 -1179
1357 -1278 123 -18 359 -14 491 9 432 75 816 323 1061 686 136 202 216 413
262 690 4 27 1 32 -33 46 -141 60 -130 288 16 333 25 8 25 19 -12 186 -65 298
-207 553 -435 780 -232 232 -488 372 -807 441 -112 24 -441 35 -550 18z m915
-988 c76 -41 135 -104 170 -179 23 -48 27 -71 27 -147 0 -77 -4 -99 -27 -147
-58 -126 -180 -208 -319 -216 l-77 -4 -7 -47 c-12 -82 -50 -137 -120 -174 -39
-21 -50 -22 -435 -22 -389 0 -396 0 -437 22 -50 27 -100 86 -113 133 -6 20
-10 197 -10 408 0 360 1 373 20 392 20 20 29 21 643 18 l622 -3 63 -34z m137
-1098 c-16 -85 -75 -156 -156 -187 -40 -15 -112 -16 -725 -14 l-681 3 -49 30
c-57 35 -103 104 -111 164 l-6 41 868 0 867 0 -7 -37z"/>
<path d="M2370 2204 l0 -187 62 6 c107 10 178 81 178 180 0 110 -85 187 -207
187 l-33 0 0 -186z"/>
</g>
</svg>
